<?xml version="1.0" encoding="utf-8"?>
<!-- Generator: Adobe Illustrator 23.0.2, SVG Export Plug-In . SVG Version: 6.00 Build 0)  -->
<svg version="1.1" id="Layer_1" xmlns="http://www.w3.org/2000/svg" xmlns:xlink="http://www.w3.org/1999/xlink" x="0px" y="0px"
	 viewBox="0 0 512 211" style="enable-background:new 0 0 512 211;" xml:space="preserve">
<style type="text/css">
	.st0{fill:#FFFFFF;}
	.st1{fill:#63316D;}
	.st2{fill:none;}
	.st3{fill:#F7E658;}
	.st4{fill:#770295;}
</style>
<g>
	<path class="st0" d="M141.3,153c1.9,0.8,3.5,1.9,4.6,3.3c0.5,0.6,0.7,1.2,0.7,1.8c0,0.6-0.3,1.2-1,1.8c-0.4,0.3-0.9,0.5-1.6,0.5
		c-1,0-1.9-0.4-2.7-1.1c-0.9-0.9-2-1.5-3-1.8c-1.1-0.4-2.3-0.5-3.9-0.5c-1.7,0-3.2,0.3-4.3,0.9c-1.1,0.6-1.7,1.4-1.7,2.5
		c0,0.8,0.2,1.4,0.6,1.9c0.4,0.5,1.1,1,2.2,1.4c1.1,0.4,2.6,0.9,4.6,1.3c4.1,0.8,7.1,2,8.8,3.5c1.7,1.5,2.6,3.4,2.6,5.7
		c0,1.7-0.5,3.3-1.4,4.7c-0.9,1.4-2.3,2.5-4.2,3.4c-1.8,0.8-4,1.2-6.6,1.2s-5-0.4-7.3-1.2s-4.1-1.8-5.3-3.1
		c-0.5-0.5-0.7-1.1-0.7-1.8c0-0.9,0.4-1.6,1.1-2.2c0.7-0.5,1.4-0.8,2-0.8c0.8,0,1.5,0.3,2.2,1c0.7,0.8,1.8,1.5,3.2,2.1
		c1.4,0.6,3,0.9,4.6,0.9c2.2,0,3.8-0.4,5-1.1c1.2-0.7,1.8-1.7,1.8-2.9c0-1.2-0.6-2.2-1.8-2.9c-1.2-0.8-3.2-1.4-6-2
		c-7.3-1.4-10.9-4.4-10.9-9c0-1.9,0.6-3.4,1.6-4.7c1.1-1.3,2.5-2.3,4.3-2.9c1.8-0.6,3.7-1,5.7-1C137.1,151.8,139.3,152.2,141.3,153z
		"/>
	<path class="st0" d="M176.7,153.8c2.4,1.3,4.2,3.2,5.6,5.6c1.3,2.4,2,5.1,2,8.2c0,3-0.7,5.7-2,8.1c-1.3,2.4-3.2,4.3-5.5,5.6
		c-2.4,1.3-5.1,2-8.1,2c-3,0-5.7-0.7-8.1-2c-2.4-1.3-4.2-3.2-5.6-5.6c-1.3-2.4-2-5.1-2-8.1c0-3.1,0.7-5.8,2-8.2
		c1.3-2.4,3.2-4.3,5.6-5.6c2.4-1.3,5.1-2,8.1-2C171.7,151.8,174.4,152.5,176.7,153.8z M163.5,158.3c-1.5,0.9-2.7,2.2-3.6,3.8
		c-0.9,1.6-1.3,3.5-1.3,5.5c0,2,0.4,3.9,1.3,5.5c0.9,1.6,2.1,2.9,3.6,3.8c1.5,0.9,3.3,1.4,5.2,1.4c1.9,0,3.7-0.5,5.2-1.4
		c1.5-0.9,2.7-2.2,3.6-3.8c0.9-1.6,1.3-3.4,1.3-5.5c0-2-0.4-3.9-1.3-5.5c-0.9-1.6-2-2.9-3.6-3.8c-1.5-0.9-3.3-1.4-5.2-1.4
		C166.8,156.9,165,157.4,163.5,158.3z"/>
	<path class="st0" d="M253.9,153.8c2.4,1.3,4.2,3.2,5.6,5.6c1.3,2.4,2,5.1,2,8.2c0,3-0.7,5.7-2,8.1c-1.3,2.4-3.2,4.3-5.5,5.6
		c-2.4,1.3-5.1,2-8.1,2c-3,0-5.7-0.7-8.1-2c-2.4-1.3-4.2-3.2-5.6-5.6c-1.3-2.4-2-5.1-2-8.1c0-3.1,0.7-5.8,2-8.2
		c1.3-2.4,3.2-4.3,5.6-5.6c2.4-1.3,5.1-2,8.1-2C248.8,151.8,251.5,152.5,253.9,153.8z M240.6,158.3c-1.5,0.9-2.7,2.2-3.6,3.8
		c-0.9,1.6-1.3,3.5-1.3,5.5c0,2,0.4,3.9,1.3,5.5c0.9,1.6,2.1,2.9,3.6,3.8c1.5,0.9,3.3,1.4,5.2,1.4c1.9,0,3.7-0.5,5.2-1.4
		c1.5-0.9,2.7-2.2,3.6-3.8c0.9-1.6,1.3-3.4,1.3-5.5c0-2-0.4-3.9-1.3-5.5c-0.9-1.6-2-2.9-3.6-3.8c-1.5-0.9-3.3-1.4-5.2-1.4
		C243.9,156.9,242.2,157.4,240.6,158.3z"/>
	<path class="st0" d="M290.1,152.6c1.1,0.6,1.7,1.4,1.7,2.3c0,0.3,0,0.5-0.1,0.6c-0.3,1.2-1.1,1.8-2.3,1.8c-0.2,0-0.5,0-0.9-0.1
		c-1.5-0.3-2.7-0.4-3.7-0.4c-2.7,0-4.9,0.6-6.6,1.9c-1.7,1.2-2.5,2.9-2.5,5.1v16.6c0,0.9-0.2,1.6-0.7,2.1c-0.5,0.5-1.2,0.7-2.1,0.7
		c-0.9,0-1.6-0.2-2.1-0.7c-0.5-0.5-0.7-1.2-0.7-2.1v-25.4c0-0.9,0.2-1.6,0.7-2.1c0.5-0.5,1.2-0.7,2.1-0.7c1.9,0,2.8,0.9,2.8,2.8v1.1
		c1.1-1.3,2.5-2.4,4.2-3.1c1.7-0.8,3.4-1.1,5.3-1.1C287.4,151.7,288.9,152,290.1,152.6z"/>
	<path class="st3" d="M212.9,152.6c1.1,0.6,1.7,1.4,1.7,2.3c0,0.3,0,0.5-0.1,0.6c-0.3,1.2-1.1,1.8-2.3,1.8c-0.2,0-0.5,0-0.9-0.1
		c-1.5-0.3-2.7-0.4-3.7-0.4c-2.7,0-4.9,0.6-6.6,1.9c-1.7,1.2-2.5,2.9-2.5,5.1v16.6c0,0.9-0.2,1.6-0.7,2.1c-0.5,0.5-1.2,0.7-2.1,0.7
		c-0.9,0-1.6-0.2-2.1-0.7c-0.5-0.5-0.7-1.2-0.7-2.1v-25.4c0-0.9,0.2-1.6,0.7-2.1c0.5-0.5,1.2-0.7,2.1-0.7c1.9,0,2.8,0.9,2.8,2.8v1.1
		c1.1-1.3,2.5-2.4,4.2-3.1c1.7-0.8,3.4-1.1,5.3-1.1C210.2,151.7,211.8,152,212.9,152.6z"/>
	<path class="st0" d="M303.9,140.6c0.7,0.7,1.1,1.6,1.1,2.6c0,1-0.4,1.9-1.1,2.6c-0.7,0.7-1.6,1.1-2.6,1.1c-1,0-1.9-0.4-2.6-1.1
		c-0.7-0.7-1.1-1.6-1.1-2.6c0-1,0.4-1.9,1.1-2.6c0.7-0.7,1.6-1.1,2.6-1.1C302.2,139.4,303.1,139.8,303.9,140.6z M299.1,152.8
		c0.5-0.5,1.2-0.8,2.1-0.8c0.9,0,1.6,0.3,2.1,0.8c0.5,0.5,0.8,1.2,0.8,2.1v25.3c0,0.8-0.3,1.5-0.8,2.1c-0.5,0.5-1.2,0.8-2.1,0.8
		c-0.8,0-1.5-0.3-2.1-0.8c-0.6-0.6-0.8-1.2-0.8-2.1v-25.3C298.3,154,298.6,153.3,299.1,152.8z"/>
	<path class="st0" d="M343.8,139.5c0.5,0.5,0.8,1.2,0.8,2.1v25.9c0,3-0.7,5.6-2.1,8c-1.4,2.4-3.3,4.3-5.6,5.7
		c-2.4,1.4-5,2.1-7.9,2.1c-2.9,0-5.6-0.7-8-2.1c-2.4-1.4-4.3-3.3-5.7-5.7c-1.4-2.4-2-5.1-2-8c0-3,0.6-5.6,1.9-8
		c1.3-2.4,3-4.3,5.2-5.7c2.2-1.4,4.7-2,7.4-2c2.2,0,4.2,0.5,6.1,1.4c1.9,0.9,3.5,2.2,4.8,3.8v-15.3c0-0.9,0.3-1.6,0.8-2.1
		c0.5-0.5,1.2-0.8,2.1-0.8C342.6,138.7,343.3,139,343.8,139.5z M334.2,176.8c1.5-0.9,2.7-2.2,3.6-3.8c0.9-1.6,1.3-3.4,1.3-5.5
		c0-2-0.4-3.8-1.3-5.4c-0.9-1.6-2.1-2.9-3.6-3.8c-1.5-0.9-3.2-1.4-5.1-1.4c-1.9,0-3.6,0.5-5.1,1.4c-1.5,0.9-2.8,2.2-3.6,3.8
		c-0.9,1.6-1.3,3.4-1.3,5.4c0,2,0.4,3.8,1.3,5.5c0.9,1.6,2.1,2.9,3.6,3.8c1.5,0.9,3.2,1.4,5.1,1.4
		C330.9,178.2,332.6,177.8,334.2,176.8z"/>
	<path class="st0" d="M376.9,153.9c2.4,1.4,4.2,3.3,5.6,5.7c1.4,2.4,2.1,5.1,2.1,8v12.7c0,0.8-0.3,1.5-0.8,2.1
		c-0.6,0.6-1.2,0.8-2.1,0.8c-0.8,0-1.5-0.3-2.1-0.8c-0.6-0.5-0.8-1.2-0.8-2.1v-2.1c-1.3,1.6-2.9,2.9-4.8,3.8
		c-1.9,0.9-3.9,1.4-6.1,1.4c-2.7,0-5.2-0.7-7.4-2c-2.2-1.4-4-3.2-5.2-5.7c-1.3-2.4-1.9-5.1-1.9-8s0.7-5.6,2-8
		c1.4-2.4,3.2-4.3,5.7-5.7c2.4-1.4,5.1-2.1,8-2.1C371.9,151.8,374.5,152.5,376.9,153.9z M374.1,176.8c1.5-0.9,2.7-2.2,3.6-3.8
		c0.9-1.6,1.3-3.4,1.3-5.4s-0.4-3.8-1.3-5.5c-0.9-1.6-2.1-2.9-3.6-3.8c-1.5-0.9-3.2-1.4-5.1-1.4c-1.9,0-3.6,0.5-5.1,1.4
		c-1.5,0.9-2.8,2.2-3.6,3.8c-0.9,1.6-1.3,3.5-1.3,5.5s0.4,3.8,1.3,5.4c0.9,1.6,2.1,2.9,3.6,3.8c1.5,0.9,3.2,1.4,5.1,1.4
		C370.9,178.2,372.6,177.8,374.1,176.8z"/>
	<path class="st0" d="M422.2,139.5c0.5,0.5,0.8,1.2,0.8,2.1v25.9c0,3-0.7,5.6-2.1,8c-1.4,2.4-3.3,4.3-5.6,5.7
		c-2.4,1.4-5,2.1-7.9,2.1c-2.9,0-5.6-0.7-8-2.1c-2.4-1.4-4.3-3.3-5.7-5.7c-1.4-2.4-2-5.1-2-8c0-3,0.6-5.6,1.9-8
		c1.3-2.4,3-4.3,5.2-5.7c2.2-1.4,4.7-2,7.4-2c2.2,0,4.2,0.5,6.1,1.4c1.9,0.9,3.5,2.2,4.8,3.8v-15.3c0-0.9,0.3-1.6,0.8-2.1
		c0.5-0.5,1.2-0.8,2.1-0.8C420.9,138.7,421.6,139,422.2,139.5z M412.5,176.8c1.5-0.9,2.7-2.2,3.6-3.8c0.9-1.6,1.3-3.4,1.3-5.5
		c0-2-0.4-3.8-1.3-5.4c-0.9-1.6-2.1-2.9-3.6-3.8c-1.5-0.9-3.2-1.4-5.1-1.4c-1.9,0-3.6,0.5-5.1,1.4c-1.5,0.9-2.8,2.2-3.6,3.8
		c-0.9,1.6-1.3,3.4-1.3,5.4c0,2,0.4,3.8,1.3,5.5c0.9,1.6,2.1,2.9,3.6,3.8c1.5,0.9,3.2,1.4,5.1,1.4
		C409.2,178.2,410.9,177.8,412.5,176.8z"/>
	<path class="st0" d="M460.4,168.9c-0.5,0.5-1.1,0.7-1.9,0.7h-21.6c0.4,2.7,1.6,4.8,3.6,6.4c2,1.6,4.4,2.4,7.3,2.4
		c1.1,0,2.3-0.2,3.6-0.6c1.2-0.4,2.2-0.9,3-1.5c0.5-0.4,1.2-0.6,1.9-0.6c0.7,0,1.3,0.2,1.7,0.6c0.7,0.6,1,1.2,1,1.9
		c0,0.7-0.3,1.3-0.9,1.7c-1.3,1-2.9,1.9-4.8,2.5c-1.9,0.6-3.7,1-5.5,1c-3.1,0-5.9-0.7-8.4-2s-4.4-3.2-5.8-5.6
		c-1.4-2.4-2.1-5.1-2.1-8.1s0.7-5.8,2-8.2c1.3-2.4,3.1-4.3,5.5-5.6c2.3-1.3,5-2,7.9-2c2.9,0,5.4,0.6,7.6,1.9
		c2.1,1.3,3.8,3.1,4.9,5.4c1.1,2.3,1.7,5,1.7,8C461.1,167.8,460.9,168.4,460.4,168.9z M440.2,158.9c-1.7,1.5-2.8,3.5-3.3,6.1h18.9
		c-0.3-2.5-1.3-4.6-2.8-6.1c-1.6-1.5-3.6-2.3-6.1-2.3C444.2,156.7,441.9,157.4,440.2,158.9z"/>
	<g>
		<path class="st3" d="M208.4,151.7c-1.9,0-3.7,0.3-5.3,1c-1.7,0.7-3.1,1.6-4.3,2.8v-0.6c0-0.9-0.3-1.6-0.8-2.1
			c-0.5-0.5-1.2-0.8-2.1-0.8c-0.8,0-1.5,0.3-2.1,0.8c-0.6,0.5-0.8,1.2-0.8,2.1v25.4c0,0.8,0.3,1.5,0.8,2.1c0.6,0.6,1.2,0.8,2.1,0.8
			c0.9,0,1.6-0.3,2.1-0.8c0.5-0.5,0.8-1.2,0.8-2.1v-16c0-1.4,0.4-2.6,1.1-3.7c0.7-1.1,1.8-2,3.1-2.6c1.3-0.6,2.8-1,4.3-1
			c0.7,0,1.3,0,1.9,0.1l1.2-5.3C209.8,151.8,209.1,151.7,208.4,151.7z"/>
		<path class="st0" d="M220.4,158.4c-1.2-2.2-2.8-3.8-4.9-5c-1.1-0.6-2.3-1-3.6-1.3c1.4,0.4,3.2,1.3,2.7,3.2
			c-0.6,2.3-3.4,2.1-4.7,1.9c1.5,0.4,2.9,1,3.9,2.1c1.6,1.6,2.5,3.9,2.5,7v14c0,0.8,0.3,1.5,0.8,2.1c0.5,0.6,1.2,0.8,2.1,0.8
			c0.8,0,1.5-0.3,2.1-0.8c0.5-0.5,0.8-1.2,0.8-2.1v-14C222.1,163.2,221.5,160.6,220.4,158.4z"/>
		<path d="M209.2,157.1c0,0,0.3,0.1,0.7,0.1C209.7,157.2,209.5,157.1,209.2,157.1L209.2,157.1z"/>
		<path d="M210.4,151.8L210.4,151.8c0.5,0.1,1,0.2,1.5,0.3C211.1,151.9,210.4,151.8,210.4,151.8z"/>
		<path class="st3" d="M214.6,155.3c0.5-1.9-1.3-2.8-2.7-3.2c-0.5-0.1-1-0.2-1.5-0.3l-1.2,5.3c0.2,0,0.5,0.1,0.7,0.1
			C211.2,157.5,214.1,157.6,214.6,155.3z"/>
	</g>
	<g>
		<path class="st4" d="M127.1,68.1l14.5,23.7c2.2-1.9,3.8-4.4,4.5-7.3c2-7.6-2.6-15.2-10.2-17.1C133,66.7,129.9,67,127.1,68.1z"/>
		<polygon class="st4" points="142.1,118.1 152.5,116.9 109.8,47 103.9,55.8 		"/>
		<path class="st3" d="M157.2,51.3c-7-5-15.6-7.1-24.1-5.8c-1,0.2-1.7,1.1-1.6,2.1c0.2,1,1.1,1.7,2.1,1.6c16.1-2.4,31,8.7,33.4,24.8
			c1.1,7.5-0.7,15.2-5.1,21.4c-0.6,0.8-0.4,2,0.4,2.6c0.8,0.6,2,0.4,2.6-0.4C175.6,82.6,172.1,61.9,157.2,51.3z"/>
		<path class="st3" d="M167,37.8c-10.4-7.4-23.3-10.5-36-8.7c-1,0.1-1.7,1.1-1.6,2.1c0.1,1,1.1,1.7,2.1,1.6c0,0,0,0,0,0
			c25-3.7,48.3,13.6,52,38.6c1.7,11.7-1.1,23.6-8,33.3c-0.6,0.8-0.4,2,0.4,2.6c0.8,0.6,2,0.4,2.6-0.4
			C194.5,84.6,189.3,53.6,167,37.8z"/>
		<path class="st4" d="M89.8,107.6c3.1,5.1,3.8,11,2.4,16.3l45.6-5.4l-36.3-59.3L75.7,98C81.4,99,86.6,102.4,89.8,107.6z"/>
		<path class="st3" d="M146.5,69.9c-5.1-6.3-13.9-8.4-21.3-5l-13.7-22.3c-0.5-0.9-1.7-1.2-2.6-0.6c-0.2,0.1-0.4,0.3-0.6,0.6
			L83.7,79.2c-4,6-8.7,11.6-14,16.7c-0.8,0.7-1.5,1.4-2.3,2.1c-0.1,0-0.1,0.1-0.2,0.1c1-0.2,2-0.4,3-0.4l17.8-22.9l19.3-29.3
			l2.3,1.6l42.7,69.8l0.6,1.7l-62.6,9.8c-0.3,0.6-0.7,1.2-1.1,1.8c7.1-2.5,15.2-4,22.6-4.8l43.8-5.2c1-0.1,1.8-1.1,1.7-2.1
			c0-0.3-0.1-0.5-0.3-0.8l-13.7-22.3C151.4,88.8,152.7,77.6,146.5,69.9z M146.2,84.6c-0.7,2.8-2.3,5.3-4.5,7.3l-14.5-23.7
			c2.8-1.2,5.9-1.4,8.8-0.7C143.5,69.3,148.1,77,146.2,84.6z"/>
		<polygon class="st3" points="103.4,56.6 141.1,118.2 142.1,118.1 103.9,55.8 		"/>
		<path class="st3" d="M81.2,137.5l5.4,8.7l-10.2,6.2c-0.9,0.5-1.2,1.7-0.6,2.6c0.5,0.9,1.7,1.2,2.6,0.6l10.2-6.2l6.2,10.2
			c0.5,0.9,1.7,1.2,2.6,0.6c0.9-0.5,1.2-1.7,0.6-2.6l-6.2-10.2l10.2-6.2c0.9-0.5,1.2-1.7,0.6-2.6c-0.5-0.9-1.7-1.2-2.6-0.6
			l-10.2,6.2l-5.4-8.7c-0.5,0.4-1,0.7-1.6,1.1C82.3,136.9,81.8,137.2,81.2,137.5z"/>
		
			<ellipse transform="matrix(0.7071 -0.7071 0.7071 0.7071 -62.8151 85.5895)" class="st4" cx="71.9" cy="118.6" rx="17.4" ry="17.4"/>
		<path class="st3" d="M153.1,118.6l-0.6-1.7l-10.4,1.2l-1,0.1l-37.7-61.6l0.6-0.8l5.8-8.7l-2.3-1.6L88.1,74.8L70.3,97.7
			c-1,0.1-2,0.2-3,0.4c-2.2,0.5-4.4,1.3-6.4,2.6c-9.9,6.1-13,19-7,28.9c5.7,9.4,17.6,12.6,27.3,7.9c0.6-0.3,1.1-0.6,1.7-0.9
			c0.5-0.3,1.1-0.7,1.6-1.1c2-1.5,3.7-3.3,5-5.2c0.4-0.6,0.8-1.2,1.1-1.8L153.1,118.6z M101.6,59.3l36.3,59.3l-45.6,5.4
			c1.4-5.3,0.7-11.2-2.4-16.3c-3.2-5.3-8.4-8.6-14.1-9.7L101.6,59.3z M81,133.5c-8.2,5-18.9,2.4-23.9-5.8s-2.4-18.9,5.8-23.9
			c8.2-5,18.9-2.4,23.9,5.8C91.8,117.7,89.2,128.4,81,133.5z"/>
	</g>
</g>
</svg>
