<?xml version="1.0" encoding="utf-8"?>
<!-- Generator: Adobe Illustrator 23.0.2, SVG Export Plug-In . SVG Version: 6.00 Build 0)  -->
<svg version="1.1" id="Layer_1" xmlns="http://www.w3.org/2000/svg" xmlns:xlink="http://www.w3.org/1999/xlink" x="0px" y="0px"
	 viewBox="0 0 71.3 64.1" style="enable-background:new 0 0 71.3 64.1;" xml:space="preserve">
<style type="text/css">
	.st0{fill:#FFFFFF;}
	.st1{fill:#63316D;}
	.st2{fill:none;}
	.st3{fill:#F7E658;}
	.st4{fill:#770295;}
</style>
<g>
	<path class="st0" d="M39,22.3l5.3,8.6c0.8-0.7,1.4-1.6,1.6-2.6c0.7-2.8-0.9-5.5-3.7-6.2C41.1,21.8,40,21.9,39,22.3z"/>
	<polygon class="st3" points="44.4,40.5 48.2,40.1 32.6,14.7 30.5,17.8 	"/>
	<path class="st4" d="M49.9,16.2c-2.5-1.8-5.7-2.6-8.8-2.1c-0.4,0.1-0.6,0.4-0.6,0.8c0.1,0.4,0.4,0.6,0.8,0.6
		c5.8-0.9,11.3,3.2,12.2,9c0.4,2.7-0.3,5.5-1.9,7.8c-0.2,0.3-0.1,0.7,0.2,1c0.3,0.2,0.7,0.1,1-0.2C56.6,27.6,55.3,20.1,49.9,16.2z"
		/>
	<path class="st4" d="M53.5,11.3C49.7,8.6,45,7.5,40.4,8.1c-0.4,0.1-0.6,0.4-0.6,0.8c0.1,0.4,0.4,0.6,0.8,0.6c0,0,0,0,0,0
		c9.1-1.3,17.6,4.9,18.9,14.1c0.6,4.3-0.4,8.6-2.9,12.1c-0.2,0.3-0.1,0.7,0.2,1c0.3,0.2,0.7,0.1,1-0.2
		C63.5,28.3,61.6,17.1,53.5,11.3z"/>
	<path class="st3" d="M25.4,36.7c1.1,1.8,1.4,4,0.9,5.9l16.6-2L29.7,19.1l-9.4,14.1C22.3,33.6,24.2,34.8,25.4,36.7z"/>
	<path class="st4" d="M46,23c-1.9-2.3-5-3-7.8-1.8l-5-8.1c-0.2-0.3-0.6-0.4-0.9-0.2c-0.1,0.1-0.2,0.1-0.2,0.2l-8.9,13.3
		c-1.5,2.2-3.2,4.2-5.1,6.1c-0.3,0.3-0.6,0.5-0.8,0.8c0,0,0,0-0.1,0c0.4-0.1,0.7-0.1,1.1-0.2l6.5-8.3l7-10.7l0.8,0.6l15.6,25.4
		l0.2,0.6l-22.8,3.6c-0.1,0.2-0.3,0.5-0.4,0.7c2.6-0.9,5.5-1.4,8.2-1.8l15.9-1.9c0.4,0,0.7-0.4,0.6-0.8c0-0.1,0-0.2-0.1-0.3l-5-8.1
		C47.8,29.9,48.3,25.8,46,23z M45.9,28.3c-0.3,1-0.8,1.9-1.6,2.6L39,22.3c1-0.4,2.1-0.5,3.2-0.2C44.9,22.8,46.6,25.6,45.9,28.3z"/>
	<polygon class="st4" points="30.3,18.2 44,40.6 44.4,40.5 30.5,17.8 	"/>
	<path class="st4" d="M22.3,47.6l1.9,3.2L20.5,53c-0.3,0.2-0.4,0.6-0.2,0.9c0.2,0.3,0.6,0.4,0.9,0.2l3.7-2.3l2.3,3.7
		c0.2,0.3,0.6,0.4,0.9,0.2c0.3-0.2,0.4-0.6,0.2-0.9l-2.3-3.7l3.7-2.3c0.3-0.2,0.4-0.6,0.2-0.9c-0.2-0.3-0.6-0.4-0.9-0.2L25.4,50
		l-1.9-3.2c-0.2,0.1-0.4,0.3-0.6,0.4S22.5,47.5,22.3,47.6z"/>
	<circle class="st3" cx="18.9" cy="40.7" r="6.3"/>
	<path class="st4" d="M48.4,40.7l-0.2-0.6l-3.8,0.4l-0.4,0L30.3,18.2l0.2-0.3l2.1-3.2l-0.8-0.6l-7,10.7l-6.5,8.3
		c-0.4,0-0.7,0.1-1.1,0.2c-0.8,0.2-1.6,0.5-2.3,0.9c-3.6,2.2-4.7,6.9-2.5,10.5c2.1,3.4,6.4,4.6,9.9,2.9c0.2-0.1,0.4-0.2,0.6-0.3
		s0.4-0.2,0.6-0.4c0.7-0.5,1.3-1.2,1.8-1.9c0.1-0.2,0.3-0.4,0.4-0.7L48.4,40.7z M29.7,19.1l13.2,21.6l-16.6,2
		c0.5-1.9,0.3-4.1-0.9-5.9c-1.2-1.9-3.1-3.1-5.1-3.5L29.7,19.1z M22.2,46.1c-3,1.8-6.9,0.9-8.7-2.1c-1.8-3-0.9-6.9,2.1-8.7
		c3-1.8,6.9-0.9,8.7,2.1S25.2,44.3,22.2,46.1z"/>
</g>
</svg>
