<?xml version="1.0" encoding="utf-8"?>
<!-- Generator: Adobe Illustrator 23.0.2, SVG Export Plug-In . SVG Version: 6.00 Build 0)  -->
<svg version="1.1" id="Layer_1" xmlns="http://www.w3.org/2000/svg" xmlns:xlink="http://www.w3.org/1999/xlink" x="0px" y="0px"
	 viewBox="0 0 512 211" style="enable-background:new 0 0 512 211;" xml:space="preserve">
<style type="text/css">
	.st0{fill:#FFFFFF;}
	.st1{fill:#63316D;}
	.st2{fill:none;}
	.st3{fill:#F7E658;}
	.st4{fill:#770295;}
</style>
<g>
	<path class="st0" d="M135.2,149.3c1.9,0.8,3.5,1.9,4.6,3.3c0.5,0.6,0.7,1.2,0.7,1.8c0,0.6-0.3,1.2-1,1.8c-0.4,0.3-0.9,0.5-1.6,0.5
		c-1,0-1.9-0.4-2.7-1.1c-0.9-0.9-2-1.5-3-1.8c-1.1-0.4-2.4-0.5-3.9-0.5c-1.7,0-3.2,0.3-4.3,0.9c-1.1,0.6-1.7,1.4-1.7,2.5
		c0,0.8,0.2,1.4,0.6,1.9c0.4,0.5,1.1,1,2.2,1.4c1.1,0.4,2.6,0.9,4.6,1.3c4.1,0.8,7.1,2,8.8,3.5c1.7,1.5,2.6,3.4,2.6,5.7
		c0,1.7-0.5,3.3-1.4,4.7c-0.9,1.4-2.3,2.5-4.2,3.4c-1.8,0.8-4,1.2-6.6,1.2s-5-0.4-7.3-1.2c-2.3-0.8-4.1-1.8-5.3-3.1
		c-0.5-0.5-0.7-1.1-0.7-1.8c0-0.9,0.4-1.6,1.1-2.2c0.7-0.5,1.4-0.8,2-0.8c0.8,0,1.5,0.3,2.2,1c0.7,0.8,1.8,1.5,3.2,2.1
		c1.4,0.6,3,0.9,4.6,0.9c2.2,0,3.8-0.4,5-1.1c1.2-0.7,1.8-1.7,1.8-2.9c0-1.2-0.6-2.2-1.8-2.9c-1.2-0.8-3.2-1.4-6-2
		c-7.3-1.4-10.9-4.4-10.9-9c0-1.9,0.6-3.4,1.6-4.7c1.1-1.3,2.5-2.3,4.3-2.9c1.8-0.6,3.7-1,5.7-1C131,148.1,133.2,148.5,135.2,149.3z
		"/>
	<path class="st0" d="M170.6,150.2c2.4,1.3,4.2,3.2,5.6,5.6c1.3,2.4,2,5.1,2,8.2c0,3-0.7,5.7-2,8.1c-1.3,2.4-3.2,4.3-5.5,5.6
		c-2.4,1.3-5.1,2-8.1,2c-3,0-5.7-0.7-8.1-2c-2.4-1.3-4.2-3.2-5.6-5.6c-1.3-2.4-2-5.1-2-8.1c0-3.1,0.7-5.8,2-8.2
		c1.3-2.4,3.2-4.3,5.6-5.6c2.4-1.3,5.1-2,8.1-2C165.6,148.1,168.3,148.8,170.6,150.2z M157.4,154.6c-1.5,0.9-2.7,2.2-3.6,3.8
		c-0.9,1.6-1.3,3.5-1.3,5.5c0,2,0.4,3.9,1.3,5.5c0.9,1.6,2.1,2.9,3.6,3.8c1.5,0.9,3.3,1.4,5.2,1.4c1.9,0,3.7-0.5,5.2-1.4
		c1.5-0.9,2.7-2.2,3.6-3.8c0.9-1.6,1.3-3.4,1.3-5.5c0-2-0.4-3.9-1.3-5.5c-0.9-1.6-2-2.9-3.6-3.8c-1.5-0.9-3.3-1.4-5.2-1.4
		C160.7,153.3,158.9,153.7,157.4,154.6z"/>
	<path class="st0" d="M247.8,150.2c2.4,1.3,4.2,3.2,5.6,5.6c1.3,2.4,2,5.1,2,8.2c0,3-0.7,5.7-2,8.1c-1.3,2.4-3.2,4.3-5.5,5.6
		c-2.4,1.3-5.1,2-8.1,2c-3,0-5.7-0.7-8.1-2c-2.4-1.3-4.2-3.2-5.6-5.6c-1.3-2.4-2-5.1-2-8.1c0-3.1,0.7-5.8,2-8.2
		c1.3-2.4,3.2-4.3,5.6-5.6c2.4-1.3,5.1-2,8.1-2C242.7,148.1,245.4,148.8,247.8,150.2z M234.5,154.6c-1.5,0.9-2.7,2.2-3.6,3.8
		c-0.9,1.6-1.3,3.5-1.3,5.5c0,2,0.4,3.9,1.3,5.5c0.9,1.6,2.1,2.9,3.6,3.8c1.5,0.9,3.3,1.4,5.2,1.4c1.9,0,3.7-0.5,5.2-1.4
		c1.5-0.9,2.7-2.2,3.6-3.8c0.9-1.6,1.3-3.4,1.3-5.5c0-2-0.4-3.9-1.3-5.5c-0.9-1.6-2-2.9-3.6-3.8c-1.5-0.9-3.3-1.4-5.2-1.4
		C237.8,153.3,236.1,153.7,234.5,154.6z"/>
	<path class="st0" d="M284,148.9c1.1,0.6,1.7,1.4,1.7,2.3c0,0.3,0,0.5-0.1,0.6c-0.3,1.2-1.1,1.8-2.3,1.8c-0.2,0-0.5,0-0.9-0.1
		c-1.5-0.3-2.7-0.4-3.7-0.4c-2.7,0-4.9,0.6-6.6,1.9c-1.7,1.2-2.5,2.9-2.5,5.1v16.6c0,0.9-0.2,1.6-0.7,2.1c-0.5,0.5-1.2,0.7-2.1,0.7
		c-0.9,0-1.6-0.2-2.1-0.7c-0.5-0.5-0.7-1.2-0.7-2.1v-25.4c0-0.9,0.2-1.6,0.7-2.1c0.5-0.5,1.2-0.7,2.1-0.7c1.9,0,2.8,0.9,2.8,2.8v1.1
		c1.1-1.3,2.5-2.4,4.2-3.1c1.7-0.8,3.4-1.1,5.3-1.1C281.3,148,282.8,148.3,284,148.9z"/>
	<path class="st0" d="M206.8,148.9c1.1,0.6,1.7,1.4,1.7,2.3c0,0.3,0,0.5-0.1,0.6c-0.3,1.2-1.1,1.8-2.3,1.8c-0.2,0-0.5,0-0.9-0.1
		c-1.5-0.3-2.7-0.4-3.7-0.4c-2.7,0-4.9,0.6-6.6,1.9c-1.7,1.2-2.5,2.9-2.5,5.1v16.6c0,0.9-0.2,1.6-0.7,2.1c-0.5,0.5-1.2,0.7-2.1,0.7
		c-0.9,0-1.6-0.2-2.1-0.7c-0.5-0.5-0.7-1.2-0.7-2.1v-25.4c0-0.9,0.2-1.6,0.7-2.1c0.5-0.5,1.2-0.7,2.1-0.7c1.9,0,2.8,0.9,2.8,2.8v1.1
		c1.1-1.3,2.5-2.4,4.2-3.1c1.7-0.8,3.4-1.1,5.3-1.1C204.1,148,205.7,148.3,206.8,148.9z"/>
	<path class="st0" d="M297.8,136.9c0.7,0.7,1.1,1.6,1.1,2.6c0,1-0.4,1.9-1.1,2.6c-0.7,0.7-1.6,1.1-2.6,1.1s-1.9-0.4-2.6-1.1
		c-0.7-0.7-1.1-1.6-1.1-2.6c0-1,0.4-1.9,1.1-2.6c0.7-0.7,1.6-1.1,2.6-1.1S297,136.2,297.8,136.9z M293,149.2
		c0.5-0.5,1.2-0.8,2.1-0.8c0.9,0,1.6,0.3,2.1,0.8c0.5,0.5,0.8,1.2,0.8,2.1v25.3c0,0.8-0.3,1.5-0.8,2.1c-0.5,0.5-1.2,0.8-2.1,0.8
		c-0.8,0-1.5-0.3-2.1-0.8c-0.6-0.6-0.8-1.2-0.8-2.1v-25.3C292.2,150.4,292.5,149.7,293,149.2z"/>
	<path class="st0" d="M337.7,135.9c0.5,0.5,0.8,1.2,0.8,2.1v25.9c0,3-0.7,5.6-2.1,8c-1.4,2.4-3.3,4.3-5.6,5.7
		c-2.4,1.4-5,2.1-7.9,2.1c-2.9,0-5.6-0.7-8-2.1c-2.4-1.4-4.3-3.3-5.7-5.7c-1.4-2.4-2-5.1-2-8c0-3,0.6-5.6,1.9-8
		c1.3-2.4,3-4.3,5.2-5.7c2.2-1.4,4.7-2,7.4-2c2.2,0,4.2,0.5,6.1,1.4c1.9,0.9,3.5,2.2,4.8,3.8V138c0-0.9,0.3-1.6,0.8-2.1
		c0.5-0.5,1.2-0.8,2.1-0.8C336.5,135.1,337.2,135.3,337.7,135.9z M328,173.2c1.5-0.9,2.7-2.2,3.6-3.8c0.9-1.6,1.3-3.4,1.3-5.5
		c0-2-0.4-3.8-1.3-5.4c-0.9-1.6-2.1-2.9-3.6-3.8c-1.5-0.9-3.2-1.4-5.1-1.4c-1.9,0-3.6,0.5-5.1,1.4c-1.5,0.9-2.8,2.2-3.6,3.8
		c-0.9,1.6-1.3,3.4-1.3,5.4c0,2,0.4,3.8,1.3,5.5c0.9,1.6,2.1,2.9,3.6,3.8c1.5,0.9,3.2,1.4,5.1,1.4
		C324.8,174.6,326.5,174.1,328,173.2z"/>
	<path class="st0" d="M370.8,150.2c2.4,1.4,4.2,3.3,5.6,5.7c1.4,2.4,2.1,5.1,2.1,8v12.7c0,0.8-0.3,1.5-0.8,2.1
		c-0.6,0.6-1.2,0.8-2.1,0.8c-0.8,0-1.5-0.3-2.1-0.8c-0.6-0.5-0.8-1.2-0.8-2.1v-2.1c-1.3,1.6-2.9,2.9-4.8,3.8
		c-1.9,0.9-3.9,1.4-6.1,1.4c-2.7,0-5.2-0.7-7.4-2c-2.2-1.4-4-3.2-5.2-5.7c-1.3-2.4-1.9-5.1-1.9-8s0.7-5.6,2-8
		c1.4-2.4,3.2-4.3,5.7-5.7c2.4-1.4,5.1-2.1,8-2.1C365.8,148.1,368.4,148.8,370.8,150.2z M368,173.2c1.5-0.9,2.7-2.2,3.6-3.8
		c0.9-1.6,1.3-3.4,1.3-5.4s-0.4-3.8-1.3-5.5c-0.9-1.6-2.1-2.9-3.6-3.8c-1.5-0.9-3.2-1.4-5.1-1.4c-1.9,0-3.6,0.5-5.1,1.4
		c-1.5,0.9-2.8,2.2-3.6,3.8c-0.9,1.6-1.3,3.5-1.3,5.5s0.4,3.8,1.3,5.4c0.9,1.6,2.1,2.9,3.6,3.8c1.5,0.9,3.2,1.4,5.1,1.4
		C364.8,174.6,366.5,174.1,368,173.2z"/>
	<path class="st0" d="M416.1,135.9c0.5,0.5,0.8,1.2,0.8,2.1v25.9c0,3-0.7,5.6-2.1,8c-1.4,2.4-3.3,4.3-5.6,5.7
		c-2.4,1.4-5,2.1-7.9,2.1c-2.9,0-5.6-0.7-8-2.1c-2.4-1.4-4.3-3.3-5.7-5.7c-1.4-2.4-2-5.1-2-8c0-3,0.6-5.6,1.9-8
		c1.3-2.4,3-4.3,5.2-5.7c2.2-1.4,4.7-2,7.4-2c2.2,0,4.2,0.5,6.1,1.4c1.9,0.9,3.5,2.2,4.8,3.8V138c0-0.9,0.3-1.6,0.8-2.1
		c0.5-0.5,1.2-0.8,2.1-0.8C414.8,135.1,415.5,135.3,416.1,135.9z M406.4,173.2c1.5-0.9,2.7-2.2,3.6-3.8c0.9-1.6,1.3-3.4,1.3-5.5
		c0-2-0.4-3.8-1.3-5.4c-0.9-1.6-2.1-2.9-3.6-3.8c-1.5-0.9-3.2-1.4-5.1-1.4c-1.9,0-3.6,0.5-5.1,1.4c-1.5,0.9-2.8,2.2-3.6,3.8
		c-0.9,1.6-1.3,3.4-1.3,5.4c0,2,0.4,3.8,1.3,5.5c0.9,1.6,2.1,2.9,3.6,3.8c1.5,0.9,3.2,1.4,5.1,1.4
		C403.1,174.6,404.8,174.1,406.4,173.2z"/>
	<path class="st0" d="M454.3,165.2c-0.5,0.5-1.1,0.7-1.9,0.7h-21.6c0.4,2.7,1.6,4.8,3.6,6.4c2,1.6,4.4,2.4,7.3,2.4
		c1.1,0,2.3-0.2,3.6-0.6c1.2-0.4,2.2-0.9,3-1.5c0.5-0.4,1.2-0.6,1.9-0.6c0.7,0,1.3,0.2,1.7,0.6c0.7,0.6,1,1.2,1,1.9
		c0,0.7-0.3,1.3-0.9,1.7c-1.3,1-2.9,1.9-4.8,2.5c-1.9,0.6-3.7,1-5.5,1c-3.1,0-5.9-0.7-8.4-2c-2.5-1.3-4.4-3.2-5.8-5.6
		c-1.4-2.4-2.1-5.1-2.1-8.1s0.7-5.8,2-8.2c1.3-2.4,3.1-4.3,5.5-5.6c2.3-1.3,5-2,7.9-2c2.9,0,5.4,0.6,7.6,1.9
		c2.1,1.3,3.8,3.1,4.9,5.4c1.1,2.3,1.7,5,1.7,8C455,164.1,454.8,164.7,454.3,165.2z M434.1,155.3c-1.7,1.5-2.8,3.5-3.3,6.1h18.9
		c-0.3-2.5-1.3-4.6-2.8-6.1c-1.6-1.5-3.6-2.3-6.1-2.3C438.1,153,435.8,153.8,434.1,155.3z"/>
	<g>
		<g>
			<g>
				<path class="st3" d="M202.3,148.1c-1.9,0-3.7,0.3-5.3,1c-1.7,0.7-3.1,1.6-4.3,2.8v-0.6c0-0.9-0.3-1.6-0.8-2.1
					c-0.5-0.5-1.2-0.8-2.1-0.8c-0.8,0-1.5,0.3-2.1,0.8c-0.6,0.5-0.8,1.2-0.8,2.1v25.4c0,0.8,0.3,1.5,0.8,2.1
					c0.6,0.6,1.2,0.8,2.1,0.8c0.9,0,1.6-0.3,2.1-0.8c0.5-0.5,0.8-1.2,0.8-2.1v-16c0-1.4,0.4-2.6,1.1-3.7c0.7-1.1,1.8-2,3.1-2.6
					c1.3-0.6,2.8-1,4.3-1c0.7,0,1.3,0,1.9,0.1l1.2-5.3C203.7,148.1,203,148.1,202.3,148.1z"/>
			</g>
			<path class="st0" d="M203.1,153.5c0,0,0.3,0.1,0.7,0.1C203.6,153.5,203.4,153.5,203.1,153.5L203.1,153.5z"/>
			<path class="st0" d="M204.3,148.2L204.3,148.2c0.5,0.1,1,0.2,1.5,0.3C205,148.2,204.3,148.2,204.3,148.2z"/>
			<g>
				<g>
					<path class="st3" d="M208.6,150.9c0.2-0.4,0.3-0.9,0.4-1.3c-1-0.5-2.1-0.9-3.2-1.1C207,148.8,208.5,149.5,208.6,150.9z"/>
				</g>
				<g>
					<path class="st3" d="M203.8,153.6c0.9,0.2,1.8,0.6,2.6,1c0.4-0.5,0.8-1,1.1-1.5C206.4,153.9,204.7,153.7,203.8,153.6z"/>
				</g>
				<g>
					<path class="st0" d="M214.3,154.8c-0.7-1.3-1.6-2.4-2.7-3.4c-0.1,0.5-0.3,1-0.5,1.5c-0.6,1.6-1.4,2.9-2.4,3.9
						c1,1.5,1.5,3.4,1.5,5.9v14c0,0.8,0.3,1.5,0.8,2.1c0.5,0.6,1.2,0.8,2.1,0.8c0.8,0,1.5-0.3,2.1-0.8c0.5-0.5,0.8-1.2,0.8-2.1v-14
						C216,159.6,215.4,156.9,214.3,154.8z"/>
				</g>
				<g>
					<path class="st3" d="M207.5,153.1c0.4-0.7,0.8-1.4,1.1-2.2c-0.1-1.4-1.6-2.1-2.8-2.5c-0.5-0.1-1-0.2-1.5-0.3l-1.2,5.3
						c0.2,0,0.5,0.1,0.7,0.1C204.7,153.7,206.4,153.9,207.5,153.1z"/>
				</g>
				<g>
					<path class="st4" d="M211.6,151.4c1.3-5.1-1.6-8.8-5.3-11.5c4.4,4.2,3.3,6.9,2.8,9.3c0,0.1-0.1,0.3-0.1,0.4
						c0.1,0.1,0.2,0.1,0.4,0.2C210.2,150.2,210.9,150.8,211.6,151.4z"/>
				</g>
				<g>
					<path class="st4" d="M206.4,154.6c-1.7,1.8-3.8,2.9-6.1,3.6l-0.2,2.3c3.2-0.3,6.3-1.3,8.6-3.7c-0.3-0.4-0.6-0.8-0.9-1.1
						C207.3,155.3,206.9,154.9,206.4,154.6z"/>
				</g>
				<g>
					<path class="st4" d="M211.6,151.4c-0.7-0.6-1.4-1.1-2.2-1.6c-0.1-0.1-0.2-0.1-0.4-0.2c-0.1,0.5-0.2,0.9-0.4,1.3
						c0,0.2,0,0.5-0.1,0.7c-0.2,0.7-0.5,1.2-1,1.5c-0.3,0.5-0.7,1.1-1.1,1.5c0.5,0.3,1,0.6,1.4,1c0.3,0.3,0.7,0.7,0.9,1.1
						c1-1,1.8-2.3,2.4-3.9C211.3,152.4,211.5,151.9,211.6,151.4z"/>
				</g>
				<g>
					<path class="st4" d="M208.5,151.7c0.1-0.3,0.1-0.5,0.1-0.7c-0.3,0.8-0.7,1.5-1.1,2.2C208,152.8,208.4,152.4,208.5,151.7z"/>
				</g>
			</g>
		</g>
	</g>
	<g>
		<path class="st4" d="M121,64.5l14.5,23.7c2.2-1.9,3.8-4.4,4.5-7.3c2-7.6-2.6-15.2-10.2-17.1C126.9,63.1,123.8,63.3,121,64.5z"/>
		<polygon class="st4" points="136,114.4 146.4,113.2 103.7,43.4 97.8,52.1 		"/>
		<path class="st3" d="M151.1,47.6c-7-5-15.6-7.1-24.1-5.8c-1,0.2-1.7,1.1-1.6,2.1c0.2,1,1.1,1.7,2.1,1.6c16.1-2.4,31,8.7,33.4,24.8
			c1.1,7.5-0.7,15.2-5.1,21.4c-0.6,0.8-0.4,2,0.4,2.6c0.8,0.6,2,0.4,2.6-0.4C169.5,79,166,58.3,151.1,47.6z"/>
		<path class="st3" d="M160.9,34.1c-10.4-7.4-23.3-10.5-36-8.7c-1,0.1-1.7,1.1-1.6,2.1c0.1,1,1.1,1.7,2.1,1.6c0,0,0,0,0,0
			c25-3.7,48.3,13.6,52,38.6c1.7,11.7-1.1,23.6-8,33.3c-0.6,0.8-0.4,2,0.4,2.6c0.8,0.6,2,0.4,2.6-0.4C188.4,81,183.2,50,160.9,34.1z
			"/>
		<path class="st4" d="M83.7,104c3.1,5.1,3.8,11,2.4,16.3l45.6-5.4L95.5,55.7L69.6,94.3C75.3,95.4,80.5,98.7,83.7,104z"/>
		<path class="st3" d="M140.4,66.2c-5.1-6.3-13.9-8.4-21.3-5l-13.7-22.3c-0.5-0.9-1.7-1.2-2.6-0.6c-0.2,0.1-0.4,0.3-0.6,0.6
			L77.6,75.5c-4,6-8.7,11.6-14,16.7c-0.8,0.7-1.5,1.4-2.3,2.1c-0.1,0-0.1,0.1-0.2,0.1c1-0.2,2-0.4,3-0.4L82,71.2l19.3-29.3l2.3,1.6
			l42.7,69.8l0.6,1.7l-62.6,9.8c-0.3,0.6-0.7,1.2-1.1,1.8c7.1-2.5,15.2-4,22.6-4.8l43.8-5.2c1-0.1,1.8-1.1,1.7-2.1
			c0-0.3-0.1-0.5-0.3-0.8l-13.7-22.3C145.3,85.2,146.6,73.9,140.4,66.2z M140,80.9c-0.7,2.8-2.3,5.3-4.5,7.3L121,64.5
			c2.8-1.2,5.9-1.4,8.8-0.7C137.4,65.7,142,73.3,140,80.9z"/>
		<polygon class="st3" points="97.3,52.9 135,114.6 136,114.4 97.8,52.1 		"/>
		<path class="st3" d="M75.1,133.8l5.4,8.7l-10.2,6.2c-0.9,0.5-1.2,1.7-0.6,2.6c0.5,0.9,1.7,1.2,2.6,0.6l10.2-6.2l6.2,10.2
			c0.5,0.9,1.7,1.2,2.6,0.6c0.9-0.5,1.2-1.7,0.6-2.6l-6.2-10.2l10.2-6.2c0.9-0.5,1.2-1.7,0.6-2.6c-0.5-0.9-1.7-1.2-2.6-0.6
			l-10.2,6.2l-5.4-8.7c-0.5,0.4-1,0.7-1.6,1.1S75.7,133.5,75.1,133.8z"/>
		
			<ellipse transform="matrix(0.7071 -0.7071 0.7071 0.7071 -62.0234 80.2057)" class="st4" cx="65.8" cy="115" rx="17.4" ry="17.4"/>
		<path class="st3" d="M147,114.9l-0.6-1.7l-10.4,1.2l-1,0.1L97.3,52.9l0.6-0.8l5.8-8.7l-2.3-1.6L82,71.2L64.2,94
			c-1,0.1-2,0.2-3,0.4c-2.2,0.5-4.4,1.3-6.4,2.6c-9.9,6.1-13,19-7,28.9c5.7,9.4,17.6,12.6,27.3,7.9c0.6-0.3,1.1-0.6,1.7-0.9
			s1.1-0.7,1.6-1.1c2-1.5,3.7-3.3,5-5.2c0.4-0.6,0.8-1.2,1.1-1.8L147,114.9z M95.5,55.7l36.3,59.3l-45.6,5.4
			c1.4-5.3,0.7-11.2-2.4-16.3c-3.2-5.3-8.4-8.6-14.1-9.7L95.5,55.7z M74.9,129.8c-8.2,5-18.9,2.4-23.9-5.8s-2.4-18.9,5.8-23.9
			s18.9-2.4,23.9,5.8S83.1,124.8,74.9,129.8z"/>
	</g>
</g>
</svg>
