<?xml version="1.0" encoding="utf-8"?>
<!-- Generator: Adobe Illustrator 23.0.2, SVG Export Plug-In . SVG Version: 6.00 Build 0)  -->
<svg version="1.1" id="Layer_1" xmlns="http://www.w3.org/2000/svg" xmlns:xlink="http://www.w3.org/1999/xlink" x="0px" y="0px"
	 viewBox="0 0 263.8 64.1" style="enable-background:new 0 0 263.8 64.1;" xml:space="preserve">
<style type="text/css">
	.st0{fill:#FFFFFF;}
	.st1{fill:#63316D;}
	.st2{fill:none;}
	.st3{fill:#F7E658;}
	.st4{fill:#770295;}
</style>
<g>
	<g>
		<g>
			<g>
				<path class="st4" d="M29.3,23.8c1.3,0.5,2.4,1.3,3.1,2.2c0.3,0.4,0.5,0.8,0.5,1.2c0,0.4-0.2,0.8-0.7,1.2
					c-0.3,0.2-0.6,0.3-1.1,0.3c-0.7,0-1.3-0.2-1.8-0.7c-0.6-0.6-1.3-1-2-1.2c-0.7-0.2-1.6-0.4-2.6-0.4c-1.2,0-2.1,0.2-2.9,0.6
					c-0.8,0.4-1.1,1-1.1,1.7c0,0.5,0.1,0.9,0.4,1.3c0.3,0.3,0.7,0.7,1.5,1c0.7,0.3,1.8,0.6,3.1,0.9c2.8,0.6,4.8,1.3,5.9,2.3
					c1.2,1,1.7,2.3,1.7,3.9c0,1.2-0.3,2.2-1,3.2c-0.6,1-1.6,1.7-2.8,2.3c-1.2,0.5-2.7,0.8-4.5,0.8s-3.4-0.3-4.9-0.8
					c-1.5-0.5-2.7-1.2-3.6-2.1c-0.3-0.3-0.5-0.7-0.5-1.2c0-0.6,0.3-1.1,0.8-1.5c0.5-0.4,0.9-0.5,1.3-0.5c0.5,0,1,0.2,1.5,0.7
					c0.5,0.5,1.2,1,2.2,1.4c1,0.4,2,0.6,3.1,0.6c1.5,0,2.6-0.2,3.4-0.7c0.8-0.5,1.2-1.1,1.2-2c0-0.8-0.4-1.5-1.2-2
					c-0.8-0.5-2.1-1-4-1.3c-4.9-0.9-7.4-3-7.4-6.1c0-1.3,0.4-2.3,1.1-3.2c0.7-0.9,1.7-1.5,2.9-2c1.2-0.4,2.5-0.7,3.8-0.7
					C26.5,23,28,23.2,29.3,23.8z"/>
			</g>
		</g>
		<g>
			<g>
				<path class="st4" d="M53.2,24.3c1.6,0.9,2.8,2.2,3.8,3.8c0.9,1.6,1.4,3.5,1.4,5.5c0,2-0.4,3.9-1.3,5.5c-0.9,1.6-2.1,2.9-3.7,3.8
					c-1.6,0.9-3.4,1.4-5.5,1.4c-2,0-3.9-0.5-5.5-1.4c-1.6-0.9-2.9-2.2-3.8-3.8c-0.9-1.6-1.3-3.4-1.3-5.5c0-2.1,0.4-3.9,1.3-5.5
					c0.9-1.6,2.1-2.9,3.8-3.8c1.6-0.9,3.4-1.4,5.5-1.4C49.8,23,51.6,23.4,53.2,24.3z M44.3,27.3c-1,0.6-1.8,1.5-2.4,2.6
					C41.3,31,41,32.3,41,33.6c0,1.4,0.3,2.6,0.9,3.7c0.6,1.1,1.4,1.9,2.4,2.6c1,0.6,2.2,0.9,3.5,0.9c1.3,0,2.5-0.3,3.5-0.9
					c1-0.6,1.8-1.5,2.4-2.6c0.6-1.1,0.9-2.3,0.9-3.7c0-1.4-0.3-2.6-0.9-3.7c-0.6-1.1-1.4-2-2.4-2.6c-1-0.6-2.2-0.9-3.5-0.9
					C46.5,26.4,45.3,26.7,44.3,27.3z"/>
			</g>
		</g>
		<g>
			<g>
				<path class="st4" d="M105.2,24.3c1.6,0.9,2.8,2.2,3.8,3.8c0.9,1.6,1.4,3.5,1.4,5.5c0,2-0.4,3.9-1.3,5.5
					c-0.9,1.6-2.1,2.9-3.7,3.8c-1.6,0.9-3.4,1.4-5.5,1.4c-2,0-3.9-0.5-5.5-1.4c-1.6-0.9-2.9-2.2-3.8-3.8c-0.9-1.6-1.3-3.4-1.3-5.5
					c0-2.1,0.4-3.9,1.3-5.5c0.9-1.6,2.1-2.9,3.8-3.8c1.6-0.9,3.4-1.4,5.5-1.4C101.8,23,103.6,23.4,105.2,24.3z M96.3,27.3
					c-1,0.6-1.8,1.5-2.4,2.6C93.3,31,93,32.3,93,33.6c0,1.4,0.3,2.6,0.9,3.7c0.6,1.1,1.4,1.9,2.4,2.6c1,0.6,2.2,0.9,3.5,0.9
					c1.3,0,2.5-0.3,3.5-0.9c1-0.6,1.8-1.5,2.4-2.6c0.6-1.1,0.9-2.3,0.9-3.7c0-1.4-0.3-2.6-0.9-3.7c-0.6-1.1-1.4-2-2.4-2.6
					c-1-0.6-2.2-0.9-3.5-0.9C98.5,26.4,97.3,26.7,96.3,27.3z"/>
			</g>
		</g>
		<g>
			<g>
				<path class="st4" d="M129.6,23.5c0.8,0.4,1.1,0.9,1.1,1.5c0,0.2,0,0.3,0,0.4c-0.2,0.8-0.7,1.2-1.5,1.2c-0.1,0-0.3,0-0.6-0.1
					c-1-0.2-1.9-0.3-2.5-0.3c-1.8,0-3.3,0.4-4.4,1.3c-1.1,0.8-1.7,2-1.7,3.4v11.2c0,0.6-0.2,1.1-0.5,1.4c-0.3,0.3-0.8,0.5-1.4,0.5
					c-0.6,0-1.1-0.2-1.4-0.5c-0.3-0.3-0.5-0.8-0.5-1.4V25.1c0-0.6,0.2-1.1,0.5-1.4c0.3-0.3,0.8-0.5,1.4-0.5c1.3,0,1.9,0.6,1.9,1.9
					v0.7c0.8-0.9,1.7-1.6,2.8-2.1s2.3-0.8,3.6-0.8C127.8,22.9,128.9,23.1,129.6,23.5z"/>
			</g>
		</g>
		<g>
			<g>
				<path class="st4" d="M77.6,23.5c0.8,0.4,1.1,0.9,1.1,1.5c0,0.2,0,0.3,0,0.4c-0.2,0.8-0.7,1.2-1.5,1.2c-0.1,0-0.3,0-0.6-0.1
					c-1-0.2-1.9-0.3-2.5-0.3c-1.8,0-3.3,0.4-4.4,1.3c-1.1,0.8-1.7,2-1.7,3.4v11.2c0,0.6-0.2,1.1-0.5,1.4c-0.3,0.3-0.8,0.5-1.4,0.5
					c-0.6,0-1.1-0.2-1.4-0.5c-0.3-0.3-0.5-0.8-0.5-1.4V25.1c0-0.6,0.2-1.1,0.5-1.4c0.3-0.3,0.8-0.5,1.4-0.5c1.3,0,1.9,0.6,1.9,1.9
					v0.7c0.8-0.9,1.7-1.6,2.8-2.1s2.3-0.8,3.6-0.8C75.8,22.9,76.8,23.1,77.6,23.5z"/>
			</g>
		</g>
		<g>
			<g>
				<path class="st4" d="M138.9,15.4c0.5,0.5,0.7,1.1,0.7,1.8c0,0.7-0.2,1.3-0.7,1.8c-0.5,0.5-1.1,0.7-1.8,0.7
					c-0.7,0-1.3-0.2-1.8-0.7c-0.5-0.5-0.7-1.1-0.7-1.8c0-0.7,0.2-1.3,0.7-1.8c0.5-0.5,1.1-0.7,1.8-0.7
					C137.8,14.7,138.4,14.9,138.9,15.4z M135.7,23.7c0.4-0.4,0.8-0.5,1.4-0.5c0.6,0,1.1,0.2,1.4,0.5c0.4,0.4,0.5,0.8,0.5,1.4v17.1
					c0,0.6-0.2,1-0.5,1.4c-0.4,0.4-0.8,0.6-1.4,0.6c-0.6,0-1-0.2-1.4-0.6c-0.4-0.4-0.6-0.8-0.6-1.4V25.1
					C135.2,24.5,135.4,24,135.7,23.7z"/>
			</g>
		</g>
		<g>
			<g>
				<path class="st4" d="M165.9,14.7c0.4,0.4,0.5,0.8,0.5,1.4v17.5c0,2-0.5,3.8-1.4,5.4c-0.9,1.6-2.2,2.9-3.8,3.8
					c-1.6,0.9-3.4,1.4-5.3,1.4c-2,0-3.8-0.5-5.4-1.4c-1.6-0.9-2.9-2.2-3.8-3.8c-0.9-1.6-1.4-3.4-1.4-5.4c0-2,0.4-3.8,1.3-5.4
					c0.9-1.6,2-2.9,3.5-3.8c1.5-0.9,3.2-1.4,5-1.4c1.5,0,2.9,0.3,4.1,0.9c1.3,0.6,2.4,1.5,3.3,2.6V16.1c0-0.6,0.2-1.1,0.6-1.4
					c0.4-0.4,0.8-0.5,1.4-0.5C165.1,14.2,165.5,14.3,165.9,14.7z M159.4,39.9c1-0.6,1.8-1.5,2.4-2.6c0.6-1.1,0.9-2.3,0.9-3.7
					c0-1.4-0.3-2.6-0.9-3.7c-0.6-1.1-1.4-1.9-2.4-2.6c-1-0.6-2.2-0.9-3.5-0.9c-1.3,0-2.4,0.3-3.5,0.9c-1,0.6-1.9,1.5-2.5,2.6
					c-0.6,1.1-0.9,2.3-0.9,3.7c0,1.4,0.3,2.6,0.9,3.7c0.6,1.1,1.4,2,2.5,2.6c1,0.6,2.2,0.9,3.5,0.9
					C157.2,40.8,158.3,40.5,159.4,39.9z"/>
			</g>
		</g>
		<g>
			<g>
				<path class="st4" d="M188.2,24.4c1.6,0.9,2.9,2.2,3.8,3.8c0.9,1.6,1.4,3.4,1.4,5.4v8.5c0,0.6-0.2,1-0.6,1.4
					c-0.4,0.4-0.8,0.6-1.4,0.6c-0.6,0-1-0.2-1.4-0.6c-0.4-0.4-0.6-0.8-0.6-1.4v-1.4c-0.9,1.1-2,2-3.3,2.6c-1.3,0.6-2.7,0.9-4.1,0.9
					c-1.8,0-3.5-0.5-5-1.4c-1.5-0.9-2.7-2.2-3.5-3.8c-0.9-1.6-1.3-3.4-1.3-5.4c0-2,0.5-3.8,1.4-5.4c0.9-1.6,2.2-2.9,3.8-3.8
					c1.6-0.9,3.4-1.4,5.4-1.4C184.8,23,186.6,23.4,188.2,24.4z M186.3,39.9c1-0.6,1.8-1.5,2.4-2.6c0.6-1.1,0.9-2.3,0.9-3.7
					c0-1.4-0.3-2.6-0.9-3.7c-0.6-1.1-1.4-2-2.4-2.6c-1-0.6-2.2-0.9-3.5-0.9c-1.3,0-2.4,0.3-3.5,0.9c-1,0.6-1.9,1.5-2.5,2.6
					c-0.6,1.1-0.9,2.3-0.9,3.7c0,1.4,0.3,2.6,0.9,3.7c0.6,1.1,1.4,1.9,2.5,2.6c1,0.6,2.2,0.9,3.5,0.9
					C184.1,40.8,185.3,40.5,186.3,39.9z"/>
			</g>
		</g>
		<g>
			<g>
				<path class="st4" d="M218.7,14.7c0.4,0.4,0.5,0.8,0.5,1.4v17.5c0,2-0.5,3.8-1.4,5.4c-0.9,1.6-2.2,2.9-3.8,3.8
					c-1.6,0.9-3.4,1.4-5.3,1.4c-2,0-3.8-0.5-5.4-1.4c-1.6-0.9-2.9-2.2-3.8-3.8c-0.9-1.6-1.4-3.4-1.4-5.4c0-2,0.4-3.8,1.3-5.4
					c0.9-1.6,2-2.9,3.5-3.8c1.5-0.9,3.2-1.4,5-1.4c1.5,0,2.9,0.3,4.1,0.9c1.3,0.6,2.4,1.5,3.3,2.6V16.1c0-0.6,0.2-1.1,0.6-1.4
					c0.4-0.4,0.8-0.5,1.4-0.5C217.9,14.2,218.4,14.3,218.7,14.7z M212.2,39.9c1-0.6,1.8-1.5,2.4-2.6c0.6-1.1,0.9-2.3,0.9-3.7
					c0-1.4-0.3-2.6-0.9-3.7c-0.6-1.1-1.4-1.9-2.4-2.6c-1-0.6-2.2-0.9-3.5-0.9c-1.3,0-2.4,0.3-3.5,0.9c-1,0.6-1.9,1.5-2.5,2.6
					c-0.6,1.1-0.9,2.3-0.9,3.7c0,1.4,0.3,2.6,0.9,3.7c0.6,1.1,1.4,2,2.5,2.6c1,0.6,2.2,0.9,3.5,0.9C210,40.8,211.2,40.5,212.2,39.9z
					"/>
			</g>
		</g>
		<g>
			<g>
				<path class="st4" d="M244.5,34.5c-0.3,0.3-0.8,0.5-1.3,0.5h-14.6c0.3,1.8,1.1,3.2,2.4,4.3c1.3,1.1,3,1.6,4.9,1.6
					c0.8,0,1.6-0.1,2.4-0.4c0.8-0.3,1.5-0.6,2.1-1c0.4-0.3,0.8-0.4,1.3-0.4c0.5,0,0.9,0.1,1.1,0.4c0.5,0.4,0.7,0.8,0.7,1.3
					c0,0.5-0.2,0.8-0.6,1.1c-0.9,0.7-1.9,1.3-3.2,1.7c-1.3,0.4-2.5,0.7-3.7,0.7c-2.1,0-4-0.5-5.6-1.4c-1.7-0.9-3-2.2-3.9-3.8
					c-0.9-1.6-1.4-3.4-1.4-5.5s0.4-3.9,1.3-5.5c0.9-1.6,2.1-2.9,3.7-3.8c1.6-0.9,3.4-1.4,5.3-1.4c2,0,3.7,0.4,5.1,1.3
					c1.4,0.9,2.5,2.1,3.3,3.6c0.8,1.6,1.2,3.3,1.2,5.4C245,33.8,244.8,34.2,244.5,34.5z M230.9,27.8c-1.2,1-1.9,2.4-2.2,4.1h12.8
					c-0.2-1.7-0.9-3.1-1.9-4.1c-1-1-2.4-1.5-4.1-1.5C233.6,26.3,232.1,26.8,230.9,27.8z"/>
			</g>
		</g>
		<g>
			<g>
				<g>
					<path class="st4" d="M74.6,22.9c-1.3,0-2.5,0.2-3.6,0.7c-1.1,0.4-2.1,1.1-2.9,1.9v-0.4c0-0.6-0.2-1.1-0.5-1.4
						c-0.4-0.4-0.8-0.5-1.4-0.5c-0.6,0-1,0.2-1.4,0.5c-0.4,0.4-0.6,0.8-0.6,1.4v17.1c0,0.6,0.2,1,0.6,1.4c0.4,0.4,0.8,0.6,1.4,0.6
						c0.6,0,1.1-0.2,1.4-0.6c0.4-0.4,0.5-0.8,0.5-1.4V31.4c0-0.9,0.2-1.8,0.7-2.5c0.5-0.7,1.2-1.3,2.1-1.8c0.9-0.4,1.9-0.7,2.9-0.7
						c0.5,0,0.9,0,1.3,0.1l0.8-3.5C75.5,23,75,22.9,74.6,22.9z"/>
				</g>
				<path class="st4" d="M75.1,26.6c0,0,0.2,0,0.5,0.1C75.4,26.6,75.3,26.6,75.1,26.6L75.1,26.6z"/>
				<path class="st4" d="M75.9,23L75.9,23c0.3,0.1,0.7,0.1,1,0.2C76.4,23,75.9,23,75.9,23z"/>
				<g>
					<g>
						<path class="st4" d="M78.8,24.9c0.1-0.3,0.2-0.6,0.3-0.9c-0.7-0.3-1.4-0.6-2.2-0.8C77.7,23.4,78.8,23.9,78.8,24.9z"/>
					</g>
					<g>
						<path class="st4" d="M75.6,26.7c0.6,0.1,1.2,0.4,1.7,0.7c0.3-0.3,0.5-0.6,0.8-1C77.3,26.8,76.2,26.8,75.6,26.7z"/>
					</g>
					<g>
						<path class="st4" d="M82.6,27.4c-0.5-0.9-1.1-1.7-1.8-2.3c-0.1,0.3-0.2,0.7-0.3,1c-0.4,1.1-1,1.9-1.6,2.6c0.7,1,1,2.3,1,3.9
							v9.4c0,0.6,0.2,1,0.6,1.4c0.4,0.4,0.8,0.6,1.4,0.6c0.6,0,1-0.2,1.4-0.6c0.4-0.4,0.6-0.8,0.6-1.4v-9.4
							C83.8,30.7,83.4,28.9,82.6,27.4z"/>
					</g>
					<g>
						<path class="st4" d="M78.1,26.3c0.3-0.4,0.5-0.9,0.7-1.5c-0.1-1-1.1-1.4-1.9-1.7c-0.3-0.1-0.7-0.1-1-0.2l-0.8,3.5
							c0.2,0,0.3,0.1,0.5,0.1C76.2,26.8,77.3,26.8,78.1,26.3z"/>
					</g>
					<path class="st0" d="M80.8,25.2c0.8-3.4-1-6-3.6-7.7c3,2.8,2.2,4.7,1.9,6.3c0,0.1,0,0.2-0.1,0.3c0.1,0,0.2,0.1,0.3,0.1
						C79.9,24.4,80.4,24.8,80.8,25.2z"/>
					<path class="st0" d="M77.3,27.4c-1.1,1.2-2.6,2-4.1,2.4L73,31.3c2.2-0.2,4.3-0.9,5.8-2.5c-0.2-0.3-0.4-0.5-0.6-0.7
						C78,27.8,77.6,27.6,77.3,27.4z"/>
					<path class="st0" d="M80.8,25.2c-0.5-0.4-0.9-0.8-1.5-1.1c-0.1,0-0.2-0.1-0.3-0.1c-0.1,0.3-0.2,0.6-0.3,0.9c0,0.2,0,0.3,0,0.5
						c-0.1,0.5-0.4,0.8-0.7,1c-0.2,0.4-0.5,0.7-0.8,1c0.3,0.2,0.6,0.4,0.9,0.7c0.2,0.2,0.4,0.5,0.6,0.7c0.7-0.7,1.2-1.6,1.6-2.6
						C80.6,25.8,80.7,25.5,80.8,25.2z"/>
					<path class="st0" d="M78.8,25.4c0-0.2,0.1-0.3,0-0.5c-0.2,0.5-0.4,1-0.7,1.5C78.4,26.1,78.7,25.8,78.8,25.4z"/>
				</g>
			</g>
		</g>
	</g>
</g>
</svg>
